# xmcd CD database file
# Copyright (C) 1997 Ti Kan
# 
# Track frame offsets:
#     205
#     22085
#     37845
#     52585
#     69727
#     85340
#     100582
#     110965
#     129710
#     143485
#     156037
#     175477
#     200612
#     216762
# 
# Disc length: 3143 seconds
# 
# Revision: 1
# Processed by: cddbd v1.4b41PL1 Copyright (c) Steve Scherf et al.
# Submitted via: DiscPlay 4.0.3
# 
DISCID=c20c450e
DTITLE=Bobby Radcliff - Universal Blues
DYEAR=1900
DGENRE=
TTITLE0=Express Yourself
TTITLE1=May Be The Last Time
TTITLE2=Animator's Convention
TTITLE3=Mail Order Woman
TTITLE4=Weep, Weep, Weep
TTITLE5=Gotta Be Some Changes Made
TTITLE6=The Stinger
TTITLE7=Soul Finger
TTITLE8=4 O'Clock In The Morning
TTITLE9=If You Love Me Like You Say
TTITLE10=Universal Rock
TTITLE11=One Room Country Shack
TTITLE12=RM Blues
TTITLE13=Devil In Disguise
EXTD=
EXTT0=
EXTT1=
EXTT2=
EXTT3=
EXTT4=
EXTT5=
EXTT6=
EXTT7=
EXTT8=
EXTT9=
EXTT10=
EXTT11=
EXTT12=
EXTT13=
PLAYORDER=
